<svg xmlns="http://www.w3.org/2000/svg" viewBox="0 0 73.68 73.68"><defs><style>.cls-1,.cls-3{fill:#fff;}.cls-1{stroke:#fff;stroke-miterlimit:10;}.cls-2{fill:#231f20;}</style></defs><title>paste</title><g id="Ebene_2" data-name="Ebene 2"><g id="Ebene_1-2" data-name="Ebene 1"><g id="paste"><rect class="cls-1" x="0.5" y="0.5" width="72.68" height="72.68"/><path class="cls-2" d="M23.52,9.4c-4.13,10.07,15.87,7.09,20.36,6.88a2.54,2.54,0,0,0,2.5-2.5c-.12-2.56.38-5.35-2-7.07a5.39,5.39,0,0,0-4.13-.84c-1.61.48-.44.72-.86.06-.26-.42-.24-1-.56-1.49-1.44-2.09-5.34-2.17-7.36-1.13A4.32,4.32,0,0,0,29.2,6c-.15.49,0,1.51-.16,1.89.84-1.59-1.37-1-2.3-1-3.22,0-3.22,5,0,5,1.91,0,4.68.54,6.26-.86a4.55,4.55,0,0,0,1.09-2.35c.24-.75,0-1.36.44-1.1s.73,1.79,1.18,2.21A4.74,4.74,0,0,0,38,10.9c.62.12,2.87-.42,3.25-.11s.09,2.44.12,3l2.5-2.5c-2.7.12-5.4.21-8.1.25-.6,0-7.86.23-7.44-.8,1.22-3-3.62-4.28-4.82-1.33Z"/><path class="cls-2" d="M25.2,9.22l-7.54-.05a2.57,2.57,0,0,0-2.5,2.5c-1.39,10.47-1.05,21-.65,31.51.17,4.46-1.72,17.58,6.27,15.61,3.13-.77,1.8-5.59-1.33-4.82,1.33-.33-.21-18.27-.26-20.35a141.18,141.18,0,0,1,1-21.95l-2.5,2.5,7.54.05c3.22,0,3.23-5,0-5Z"/><path class="cls-2" d="M29.63,34.41c-.09,8.62-.54,17.64.46,26.22.93,8.05,8.63,7.14,15,6.95a124.31,124.31,0,0,0,15.06-1.11c2.43-.38,3.71-.78,4.38-3.33,2.24-8.64,1.1-19.12.06-27.86a2.63,2.63,0,0,0-2.5-2.5c-9.73-1.29-19.4-2.44-29.22-1.64-3.19.26-3.22,5.26,0,5,9.82-.8,19.49.35,29.22,1.64l-2.5-2.5a115.41,115.41,0,0,1,1,13.77c0,4.24.36,9.92-1.2,13.92l1.74-1.75c-4.5,1.49-10.34,1.17-15,1.33-1.89.07-3.78.12-5.67.11-3.31,0-4.5.14-5.34-3.21s-.3-8.11-.37-11.73c-.08-4.44-.07-8.87,0-13.31,0-3.22-5-3.22-5,0Z"/><path class="cls-2" d="M44.92,13.48c2.28-.17,5.46-.41,7.56.72l-1.15-1.49c.38,1.76,0,3.95,0,5.75v5.79c0,3.21,5,3.22,5,0V16.88c0-1.74.5-4.5-.47-6.1-1.74-2.85-8.21-2.51-11-2.3-3.19.24-3.22,5.24,0,5Z"/><path class="cls-2" d="M20.34,60.79h6.14c3.22,0,3.23-5,0-5H20.34c-3.22,0-3.22,5,0,5Z"/><path class="cls-3" d="M52.66,50.25c-1-10,2.26-20.08-6.8-27.26-2.78-2.2-6.83-4.65-10.35-5.37-5.47-1.11-7.11,3.7-8.13,8L37,28.3c.31-1.58.47-3.68,1.25-5.11l-3,2.3c2.14-.56,4.85-.24,7-.32,6.41-.24,6.44-10.24,0-10-3.43.13-8.51-.69-11.41,1.57-2.53,2-3,6-3.54,8.9-1.22,6.25,8.15,9,9.64,2.66.25-1.07.5-2.13.78-3.19l-3,2.3c-1.54.32-.9,0,.15.7s2.12,1,3.1,1.61c2.09,1.26,3.68,2.71,4.35,5.16,1.35,4.86-.24,10.38.25,15.37.63,6.34,10.64,6.41,10,0Z"/><path class="cls-2" d="M45.66,50.91c5.47-6.79,7.07-17.44.53-24.32a24.81,24.81,0,0,0-10.54-6.28c-4.37-1.16-5,2.57-5.8,6l4.83,1.33C35,26.22,35,24,36.2,23.17s4.68-.4,6.19-.45c3.21-.12,3.22-5.12,0-5-2.69.1-7.6-.77-9.89,1-2,1.55-2.21,5.35-2.65,7.59-.61,3.13,4.08,4.49,4.83,1.33.61-2.6.4-2.32,2.87-1.07A15,15,0,0,1,43.28,31c3.55,5,2.51,11.87-1.15,16.41-2,2.49,1.51,6.05,3.53,3.54Z"/></g></g></g></svg>