<svg xmlns="http://www.w3.org/2000/svg" viewBox="0 0 73.68 73.68"><defs><style>.cls-1,.cls-3{fill:#fff;}.cls-1{stroke:#fff;stroke-miterlimit:10;}.cls-2{fill:#231f20;}</style></defs><title>copy</title><g id="Ebene_2" data-name="Ebene 2"><g id="Ebene_1-2" data-name="Ebene 1"><g id="copy"><rect class="cls-1" x="0.5" y="0.5" width="72.68" height="72.68"/><path class="cls-2" d="M24.9,10.58c-4,9.76,15.18,6.92,19.54,6.71a2.53,2.53,0,0,0,2.5-2.5c-.12-2.5.34-5.15-2-6.84a5.64,5.64,0,0,0-3.51-.86c-.58,0-2,0-1.11.85-.23-.21-.17-1.25-.32-1.57C39,4.17,35.62,3.69,33.5,4.29a4.89,4.89,0,0,0-2.8,2.06c-.51.84-.14,2.3-.49,2.89l1.5-1.15a22,22,0,0,1-3.63,0c-3.21,0-3.22,5,0,5,1.86,0,4.53.51,6.06-.85a4.11,4.11,0,0,0,1.07-2.33c-.28-.51-.22-.79.16-.84,0-.64,0-.7,0-.2.37.25.67,1.74,1.15,2.18a4.62,4.62,0,0,0,2.26,1.08c.55.11,2.83-.37,3.12-.1s0,2.34,0,2.73l2.5-2.5c-2.58.12-5.15.21-7.73.25-.55,0-7.3.13-7-.63,1.22-3-3.61-4.27-4.82-1.33Z"/><path class="cls-2" d="M26.62,10.33l-7.2-.05a2.57,2.57,0,0,0-2.5,2.5c-1.36,10.3-1,20.62-.59,31,.17,4.31-1.46,16,6.1,14.11,3.12-.77,1.8-5.59-1.33-4.82,1.53-.38,0-16.68-.1-18.89a137.46,137.46,0,0,1,.92-21.37l-2.5,2.5,7.2.05c3.22,0,3.22-5,0-5Z"/><path class="cls-2" d="M30.73,31.62c-.1,9.21-.82,19.12.48,28.26,1.09,7.69,9,6.55,14.95,6.35,4.64-.15,10.2.1,14.69-1.15,2-.56,2.82-1,3.39-3.16,1.16-4.28.93-9.52,1-13.93a126.19,126.19,0,0,0-.9-15.54,2.63,2.63,0,0,0-2.5-2.5c-9.28-1.23-18.52-2.33-27.89-1.57-3.18.26-3.21,5.27,0,5,9.37-.76,18.61.34,27.89,1.57l-2.5-2.5A126.63,126.63,0,0,1,60.21,47c0,4.45.51,10.48-1.14,14.69L60.82,60C56.75,61.3,51.42,61,47.14,61.2c-2,.08-3.93.14-5.89.12-3.45,0-4.52,0-5.19-3.9-1.38-8.18-.42-17.52-.33-25.8,0-3.22-5-3.22-5,0Z"/><path class="cls-2" d="M45.43,14.63c2.16-.17,5.18-.4,7.16.67l-1.15-1.49c.36,1.66,0,3.75,0,5.45v5.52c0,3.22,5,3.23,5,0v-7c0-1.68.46-4.32-.47-5.87C54.32,9.1,48.13,9.42,45.43,9.63c-3.19.23-3.21,5.24,0,5Z"/><path class="cls-2" d="M22,59.77h5.86c3.22,0,3.22-5,0-5H22c-3.22,0-3.22,5,0,5Z"/><path class="cls-3" d="M20.79,29.47c.34,3.69-.6,7.39.75,11a13.64,13.64,0,0,0,5.25,6.17c5.73,4,12.86,4.94,19.7,5.21,3,.11,6-3.34,4.82-6.33a33.08,33.08,0,0,0-3.77-7.22c-3-4.31-11.13-1.88-9.14,3.85a19.14,19.14,0,0,0,1.45,3.27C40,45.7,41.24,48,41.18,47c0-.68-1.17,1-1.51,1.44a36.6,36.6,0,0,0-2.26,3c-3.56,5.39,5.1,10.41,8.63,5,1.91-2.88,4.53-4.7,5-8.37s-1.86-5.44-3-8.61L38.91,43.3a22.87,22.87,0,0,1,2.76,4.83l4.82-6.32c-4-.16-8.18-.45-11.89-2.19-5-2.33-3.39-5.51-3.81-10.15-.58-6.35-10.59-6.42-10,0Z"/><path class="cls-2" d="M23.11,29.43c.58,6.28-.95,10.84,4.77,15C33.2,48.25,39.93,49,46.31,49.27a2.51,2.51,0,0,0,2.41-3.17,31.33,31.33,0,0,0-3.51-6.62c-1.52-2.15-5.57-.94-4.57,1.93.62,1.79,2.48,3.7,2.52,5.5.06,2-2.64,4-3.77,5.7-1.78,2.69,2.55,5.2,4.32,2.52C45.28,52.74,47.86,51,48.33,48c.52-3.31-1.87-5.07-2.87-7.94L40.89,42a25.2,25.2,0,0,1,3,5.43l2.41-3.16c-4.38-.17-8.82-.54-12.85-2.4-2.71-1.26-4.87-2.6-5.42-5.9-.34-2.07.27-4.41.07-6.54-.29-3.17-5.29-3.21-5,0Z"/></g></g></g></svg>