<svg xmlns="http://www.w3.org/2000/svg" viewBox="0 0 73.68 73.68"><defs><style>.cls-1{fill:#fff;stroke:#fff;stroke-miterlimit:10;}.cls-2{fill:#231f20;}</style></defs><title>undo</title><g id="Ebene_2" data-name="Ebene 2"><g id="Ebene_1-2" data-name="Ebene 1"><g id="undo"><rect class="cls-1" x="0.5" y="0.5" width="72.68" height="72.68"/><path class="cls-2" d="M42.31,56.79c6.43,1.88,11.12-3.75,13.07-9.3,2.21-6.32,4.47-17.69.06-23.56-4-5.31-14.95-4.72-20.64-3.48C27.85,22,22,26.78,20.3,33.82c-.75,3.13,4.07,4.47,4.82,1.33,2.23-9.32,15.11-12.91,23.43-9.6,5.43,2.16,4.31,9.11,3.61,13.85-.58,3.9-2.48,14.34-8.52,12.56-3.09-.9-4.41,3.92-1.33,4.83Z"/><path class="cls-2" d="M16.28,19.4c-.46,5.36-.47,13.46,3,18,1.44,1.9,3.44,2.31,5.68,2.51,3.63.32,7.28.46,10.92.7,3.21.2,3.2-4.8,0-5-3.71-.24-11.5.72-13.33-3s-1.58-9.14-1.23-13.17c.28-3.2-4.72-3.19-5,0Z"/></g></g></g></svg>