<?xml version="1.0"?>
<svg width="18" height="16" xmlns="http://www.w3.org/2000/svg" fill="white" xmlns:svg="http://www.w3.org/2000/svg" class="bi bi-clipboard-arrow-right">
 <g class="layer">
  <title>Layer 1</title>
  <path d="m11.09,7.67l5,0l0,-1.2l2.8,2.1l-2.8,2.1l0,-1.2l-5,0l0,-1z" id="svg_1"/>
  <path d="m3.04,1.43l-1,0a2,2 0 0 0 -2,2l0,10.5a2,2 0 0 0 2,2l10,0a2,2 0 0 0 2,-2l0,-10.5a2,2 0 0 0 -2,-2l-1,0l0,1l1,0a1,1 0 0 1 1,1l0,10.5a1,1 0 0 1 -1,1l-10,0a1,1 0 0 1 -1,-1l0,-10.5a1,1 0 0 1 1,-1l1,0l0,-1z" id="svg_2"/>
  <path d="m8.54,0.97a0.5,0.5 0 0 1 0.5,0.5l0,1a0.5,0.5 0 0 1 -0.5,0.5l-3,0a0.5,0.5 0 0 1 -0.5,-0.5l0,-1a0.5,0.5 0 0 1 0.5,-0.5l3,0zm-3,-1a1.5,1.5 0 0 0 -1.5,1.5l0,1a1.5,1.5 0 0 0 1.5,1.5l3,0a1.5,1.5 0 0 0 1.5,-1.5l0,-1a1.5,1.5 0 0 0 -1.5,-1.5l-3,0z" id="svg_3"/>
 </g>
</svg>